<svg xmlns="http://www.w3.org/2000/svg" viewBox="0 0 64 64" width="512" height="512"><path d="M19.99 53.3 L34.99 58.5 L42.99 55.73 L42.99 41.87 L34.99 44.64 L19.99 39.45 Z" fill="currentColor"/><path d="M14.79 39.45 L24.89 30.25 L38.09 25.67 L48.19 41.87 L34.99 46.45 Z" fill="currentColor"/><path d="M29.19 24.39 L32.39 23.28 L35.19 24.25 L35.19 34.18 L31.99 35.29 L29.19 34.32 Z" fill="currentColor"/><path d="M30.11 7.92 L32.81 9.48 L32.81 12.6 L30.11 14.16 L27.41 12.6 L27.41 9.48 Z" fill="currentColor"/><path d="M46.51 9.77 L49.21 11.33 L49.21 14.45 L46.51 16.01 L43.81 14.45 L43.81 11.33 Z" fill="currentColor"/><path d="M35.65 17.39 L37.35 18.37 L37.35 20.34 L35.65 21.32 L33.95 20.34 L33.95 18.37 Z" fill="currentColor"/><path d="M43.51 10.35 L43.45 11.11 L43.27 11.85 L42.98 12.55 L42.58 13.2 L42.09 13.78 L41.51 14.27 L40.86 14.67 L40.16 14.96 L39.42 15.14 L38.66 15.2 L37.9 15.14 L37.16 14.96 L36.46 14.67 L35.81 14.27 L35.23 13.78 L34.73 13.2 L34.34 12.55 L34.04 11.85 L33.87 11.11 L33.81 10.35 L33.87 9.59 L34.04 8.85 L34.34 8.15 L34.73 7.5 L35.23 6.92 L35.81 6.43 L36.46 6.03 L37.16 5.74 L37.9 5.56 L38.66 5.5 L39.42 5.56 L40.16 5.74 L40.86 6.03 L41.51 6.43 L42.09 6.92 L42.58 7.5 L42.98 8.15 L43.27 8.85 L43.45 9.59 Z" fill="currentColor"/><path d="M27.69 17.97 L27.64 18.53 L27.51 19.08 L27.3 19.6 L27 20.07 L26.64 20.5 L26.21 20.87 L25.73 21.16 L25.21 21.37 L24.67 21.51 L24.11 21.55 L23.55 21.51 L23 21.37 L22.48 21.16 L22 20.87 L21.58 20.5 L21.21 20.07 L20.92 19.6 L20.7 19.08 L20.57 18.53 L20.53 17.97 L20.57 17.41 L20.7 16.86 L20.92 16.35 L21.21 15.87 L21.58 15.44 L22 15.07 L22.48 14.78 L23 14.57 L23.55 14.43 L24.11 14.39 L24.67 14.43 L25.21 14.57 L25.73 14.78 L26.21 15.07 L26.64 15.44 L27 15.87 L27.3 16.35 L27.51 16.86 L27.64 17.41 Z" fill="currentColor"/><path d="M45.24 22.59 L45.2 23.08 L45.09 23.55 L44.9 24 L44.64 24.42 L44.33 24.79 L43.95 25.11 L43.54 25.37 L43.08 25.55 L42.61 25.67 L42.12 25.71 L41.63 25.67 L41.16 25.55 L40.71 25.37 L40.29 25.11 L39.92 24.79 L39.6 24.42 L39.34 24 L39.16 23.55 L39.04 23.08 L39 22.59 L39.04 22.1 L39.16 21.63 L39.34 21.17 L39.6 20.76 L39.92 20.38 L40.29 20.07 L40.71 19.81 L41.16 19.62 L41.63 19.51 L42.12 19.47 L42.61 19.51 L43.08 19.62 L43.54 19.81 L43.95 20.07 L44.33 20.38 L44.64 20.76 L44.9 21.17 L45.09 21.63 L45.2 22.1 Z" fill="currentColor"/></svg>